<?xml version="1.0" encoding="utf-8"?>
<!-- Generator: Adobe Illustrator 24.1.3, SVG Export Plug-In . SVG Version: 6.00 Build 0)  -->
<svg version="1.1" id="Layer_1" xmlns="http://www.w3.org/2000/svg" xmlns:xlink="http://www.w3.org/1999/xlink" x="0px" y="0px"
	 viewBox="0 0 23.52 23.52" style="enable-background:new 0 0 23.52 23.52;" xml:space="preserve">
<style type="text/css">
	.st0{fill-rule:evenodd;clip-rule:evenodd;fill:#262626;}
</style>
<path class="st0" d="M23.5,22.8l-1.4-5.5c0.9-1.65,1.4-3.55,1.4-5.55C23.5,5.25,18.25,0,11.75,0S0,5.25,0,11.75
	S5.25,23.5,11.75,23.5c2,0,3.9-0.5,5.55-1.4l5.5,1.4C23.2,23.6,23.6,23.2,23.5,22.8z M22,11.75c0,2-0.5,3.5-1.3,5
	c-0.1,0.2-0.15,0.45-0.1,0.7l1.05,4.2L17.5,20.6c-0.25-0.05-0.5-0.05-0.7,0.1c-0.9,0.5-2.6,1.3-5,1.3C6.1,22,1.5,17.4,1.5,11.75
	S6.1,1.5,11.75,1.5S22,6.1,22,11.75z"/>
</svg>
