<?xml version="1.0" encoding="utf-8"?>
<!-- Generator: Adobe Illustrator 24.1.3, SVG Export Plug-In . SVG Version: 6.00 Build 0)  -->
<svg version="1.1" id="Layer_1" xmlns="http://www.w3.org/2000/svg" xmlns:xlink="http://www.w3.org/1999/xlink" x="0px" y="0px"
	 viewBox="0 0 22 22" style="enable-background:new 0 0 22 22;" xml:space="preserve">
<style type="text/css">
	.st0{fill-rule:evenodd;clip-rule:evenodd;fill:#262626;}
</style>
<path class="st0" d="M11,0C4.95,0,0,4.95,0,11s4.95,11,11,11s11-4.95,11-11S17.05,0,11,0z M11,20.63c-5.32,0-9.63-4.31-9.63-9.63
	S5.68,1.38,11,1.38s9.63,4.31,9.63,9.63S16.32,20.63,11,20.63z M15.68,5.41L8.89,8.62C8.75,8.66,8.62,8.8,8.57,8.94l-3.21,6.78
	C5.23,16,5.27,16.32,5.5,16.5c0.14,0.14,0.32,0.18,0.5,0.18c0.09,0,0.18,0,0.28-0.05l6.78-3.21c0.14-0.05,0.28-0.18,0.32-0.32
	l3.21-6.78c0.14-0.28,0.09-0.6-0.14-0.78C16.27,5.32,15.95,5.27,15.68,5.41z M12.28,12.28L9.76,9.76l4.81-2.29L12.28,12.28z"/>
</svg>
