<?xml version="1.0" encoding="utf-8"?>
<!-- Generator: Adobe Illustrator 24.1.3, SVG Export Plug-In . SVG Version: 6.00 Build 0)  -->
<svg version="1.1" id="Layer_1" xmlns="http://www.w3.org/2000/svg" xmlns:xlink="http://www.w3.org/1999/xlink" x="0px" y="0px"
	 viewBox="0 0 17.55 17.55" style="enable-background:new 0 0 17.55 17.55;" xml:space="preserve">
<style type="text/css">
	.st0{fill-rule:evenodd;clip-rule:evenodd;fill:#262626;}
</style>
<path class="st0" d="M17.32,1.33l-7.5,7.5l7.45,7.45c0.3,0.3,0.3,0.75,0,1.05s-0.75,0.3-1.05,0l-7.45-7.5l-7.45,7.5
	c-0.3,0.3-0.75,0.3-1.05,0s-0.3-0.75,0-1.05l7.45-7.5l-7.5-7.5c-0.3-0.3-0.3-0.75,0-1.05s0.75-0.3,1.05,0l7.5,7.5l7.5-7.5
	c0.3-0.3,0.75-0.3,1.05,0S17.62,1.03,17.32,1.33z"/>
</svg>
