<?xml version="1.0" encoding="utf-8"?>
<!-- Generator: Adobe Illustrator 24.1.3, SVG Export Plug-In . SVG Version: 6.00 Build 0)  -->
<svg version="1.1" id="Layer_1" xmlns="http://www.w3.org/2000/svg" xmlns:xlink="http://www.w3.org/1999/xlink" x="0px" y="0px"
	 viewBox="0 0 22 19.1" style="enable-background:new 0 0 22 19.1;" xml:space="preserve">
<style type="text/css">
	.st0{fill:#ED4956;}
</style>
<path class="st0" d="M15.9,0c-2.1,0-3.6,0.8-4.9,2.6C9.8,0.9,8.2,0,6.1,0C2.8,0,0,3,0,6.7c0,3.3,2.5,5.5,4.9,7.6
	c0.3,0.2,0.6,0.5,0.9,0.8l1,0.9c2,1.8,3,2.7,3.5,3c0.2,0.1,0.5,0.2,0.7,0.2c0.3,0,0.5-0.1,0.7-0.2c0.5-0.3,1.3-1,3.6-3.1l0.9-0.8
	c0.3-0.3,0.6-0.6,0.9-0.8c2.4-2,4.9-4.1,4.9-7.5C22,3,19.3,0,15.9,0z"/>
</svg>
