<?xml version="1.0" encoding="utf-8"?>
<!-- Generator: Adobe Illustrator 24.1.3, SVG Export Plug-In . SVG Version: 6.00 Build 0)  -->
<svg version="1.1" id="Layer_1" xmlns="http://www.w3.org/2000/svg" xmlns:xlink="http://www.w3.org/1999/xlink" x="0px" y="0px"
	 viewBox="0 0 1032.1 1081.7" style="enable-background:new 0 0 1032.1 1081.7;" xml:space="preserve">
<style type="text/css">
	.st0{display:none;}
	.st1{fill:#262626;}
</style>
<desc>Created with Fabric.js 4.2.0</desc>
<rect x="-48.1" y="1.7" class="st0" width="1080" height="1080"/>
<g id="_x32_239cb51-b5ba-4dfa-bcfd-82bde04af526" transform="matrix(1 0 0 1 540 540)">
</g>
<g id="_x38_ca10fb9-0e6d-417a-bddf-cfedc094d563" transform="matrix(9.41 0 0 9.41 540 486.45)">
	<path vector-effect="non-scaling-stroke" class="st1" d="M48.9,63.3H12.1c-1.9,0-3.6-1.7-3.6-3.6V30.3c0-6.2-5-11-11-11
		s-11,5-11,11v29.4c0,1.9-1.7,3.6-3.6,3.6h-36.8c-1.9,0-3.6-1.7-3.6-3.6V3.5c0-1,0.5-1.9,1-2.6l51.4-51.4c1.4-1.4,3.8-1.4,5,0
		L51.3,0.9c0.7,0.7,1,1.7,1,2.6v56.1C52.5,61.6,50.8,63.3,48.9,63.3z"/>
</g>
</svg>
