<?xml version="1.0" encoding="utf-8"?>
<!-- Generator: Adobe Illustrator 24.1.3, SVG Export Plug-In . SVG Version: 6.00 Build 0)  -->
<svg version="1.1" id="Layer_1" xmlns="http://www.w3.org/2000/svg" xmlns:xlink="http://www.w3.org/1999/xlink" x="0px" y="0px"
	 viewBox="0 0 21.08 21.08" style="enable-background:new 0 0 21.08 21.08;" xml:space="preserve">
<style type="text/css">
	.st0{fill:#262626;}
</style>
<path class="st0" d="M16.13,7.2l-3.3,2.52c-0.23,0.18-0.55,0.18-0.78,0L9.58,7.88C8.85,7.33,7.79,7.52,7.29,8.3l-3.12,4.9
	c-0.32,0.46,0.28,1.01,0.73,0.69l3.35-2.52c0.23-0.18,0.55-0.18,0.78,0l2.48,1.83c0.73,0.55,1.79,0.37,2.29-0.41l3.12-4.9
	C17.19,7.38,16.59,6.88,16.13,7.2z M10.54,0C4.58,0,0,4.35,0,10.22c0,3.07,1.24,5.73,3.3,7.56c0.18,0.14,0.28,0.37,0.28,0.6
	l0.09,1.88c0,0.46,0.41,0.82,0.83,0.82c0.09,0,0.23,0,0.32-0.09l2.11-0.92c0.09-0.05,0.23-0.09,0.32-0.09s0.14,0,0.23,0.05
	c0.96,0.27,1.97,0.41,3.07,0.41c5.96,0,10.54-4.35,10.54-10.22S16.5,0,10.54,0z M10.54,19.07c-0.92,0-1.83-0.14-2.7-0.37
	c-0.18-0.05-0.37-0.09-0.6-0.09c-0.32,0-0.6,0.05-0.92,0.18l-1.38,0.6v-1.05c0-0.6-0.28-1.15-0.73-1.56
	c-1.83-1.65-2.84-3.99-2.84-6.55c0-5.04,3.94-8.85,9.17-8.85s9.17,3.8,9.17,8.85S15.77,19.07,10.54,19.07z"/>
</svg>
