<?xml version="1.0" encoding="utf-8"?>
<!-- Generator: Adobe Illustrator 24.1.3, SVG Export Plug-In . SVG Version: 6.00 Build 0)  -->
<svg version="1.1" id="Layer_1" xmlns="http://www.w3.org/2000/svg" xmlns:xlink="http://www.w3.org/1999/xlink" x="0px" y="0px"
	 viewBox="0 0 22 22" style="enable-background:new 0 0 22 22;" xml:space="preserve">
<style type="text/css">
	.st0{fill:#262626;}
</style>
<path class="st0" d="M14.57,22H7.43c-3.03,0-4.4-0.73-5.55-1.83C0.73,18.98,0,17.6,0,14.57V7.43c0-3.03,0.73-4.4,1.83-5.55
	C3.03,0.73,4.4,0,7.43,0h7.15c3.02,0,4.4,0.73,5.55,1.83C21.27,3.03,22,4.4,22,7.43v7.15c0,3.02-0.73,4.4-1.83,5.55
	C18.98,21.27,17.6,22,14.57,22z M7.43,1.38c-2.84,0-3.85,0.73-4.63,1.47C2.11,3.58,1.38,4.58,1.38,7.43v7.15
	c0,2.84,0.73,3.85,1.47,4.63c0.73,0.73,1.74,1.42,4.58,1.42h7.15c2.84,0,3.85-0.73,4.63-1.47c0.73-0.73,1.42-1.74,1.42-4.58V7.43
	c0-2.84-0.73-3.85-1.47-4.63c-0.73-0.69-1.74-1.42-4.58-1.42H7.43z"/>
<path class="st0" d="M16.64,11.69H5.36C5,11.69,4.68,11.37,4.68,11c0-0.37,0.32-0.69,0.69-0.69h11.28c0.37,0,0.69,0.32,0.69,0.69
	C17.33,11.37,17,11.69,16.64,11.69z"/>
<path class="st0" d="M11,17.33c-0.37,0-0.69-0.32-0.69-0.69V5.36c0-0.37,0.32-0.69,0.69-0.69c0.37,0,0.69,0.32,0.69,0.69v11.28
	C11.69,17,11.37,17.33,11,17.33z"/>
</svg>
