<?xml version="1.0" encoding="utf-8"?>
<!-- Generator: Adobe Illustrator 24.1.3, SVG Export Plug-In . SVG Version: 6.00 Build 0)  -->
<svg version="1.1" id="Layer_1" xmlns="http://www.w3.org/2000/svg" xmlns:xlink="http://www.w3.org/1999/xlink" x="0px" y="0px"
	 viewBox="0 0 21 24.02" style="enable-background:new 0 0 21 24.02;" xml:space="preserve">
<style type="text/css">
	.st0{fill:#262626;}
</style>
<path class="st0" d="M20.25,24c-0.2,0-0.4-0.1-0.55-0.2l-9.2-9.3l-9.2,9.3c-0.2,0.2-0.55,0.3-0.8,0.15c-0.3-0.1-0.5-0.4-0.5-0.7
	V0.75C0,0.35,0.35,0,0.75,0h19.5C20.65,0,21,0.35,21,0.75v22.5c0,0.3-0.2,0.6-0.45,0.7C20.45,24,20.35,24,20.25,24z M10.5,13
	c0.4,0,0.8,0.15,1.1,0.45l7.9,8V1.5h-18v19.95l7.9-8C9.7,13.15,10.1,13,10.5,13z"/>
</svg>
