<?xml version="1.0" encoding="utf-8"?>
<!-- Generator: Adobe Illustrator 24.1.3, SVG Export Plug-In . SVG Version: 6.00 Build 0)  -->
<svg version="1.1" id="Layer_1" xmlns="http://www.w3.org/2000/svg" xmlns:xlink="http://www.w3.org/1999/xlink" x="0px" y="0px"
	 viewBox="0 0 24.01 21" style="enable-background:new 0 0 24.01 21;" xml:space="preserve">
<style type="text/css">
	.st0{fill:#262626;}
</style>
<path class="st0" d="M23.9,0.4C23.75,0.15,23.5,0,23.25,0H0.75c-0.3,0.05-0.6,0.25-0.7,0.5S0,1.1,0.2,1.35l7.95,7.8l2.75,11.3
	c0.05,0.3,0.3,0.5,0.6,0.55h0.1c0.25,0,0.5-0.15,0.65-0.35l11.6-19.5C24.05,0.95,24.05,0.65,23.9,0.4z M2.6,1.55h17.75L9,7.85
	L2.6,1.55z M11.95,18.35l-2.2-9.2L21.2,2.8L11.95,18.35z"/>
</svg>
