<?xml version="1.0" encoding="utf-8"?>
<!-- Generator: Adobe Illustrator 24.1.3, SVG Export Plug-In . SVG Version: 6.00 Build 0)  -->
<svg version="1.1" id="Layer_1" xmlns="http://www.w3.org/2000/svg" xmlns:xlink="http://www.w3.org/1999/xlink" x="0px" y="0px"
	 viewBox="0 0 24 24" style="enable-background:new 0 0 24 24;" xml:space="preserve">
<style type="text/css">
	.st0{fill:#262626;}
</style>
<path class="st0" d="M12,24C5.4,24,0,18.6,0,12S5.4,0,12,0s12,5.4,12,12S18.6,24,12,24z M12,1.5C6.2,1.5,1.5,6.2,1.5,12
	S6.2,22.5,12,22.5S22.5,17.8,22.5,12S17.8,1.5,12,1.5z"/>
<path class="st0" d="M17.45,12c0-0.7-0.55-1.25-1.25-1.25S14.95,11.3,14.95,12s0.55,1.25,1.25,1.25C16.9,13.25,17.45,12.7,17.45,12z
	 M6.55,12c0-0.7,0.55-1.25,1.25-1.25S9.05,11.3,9.05,12S8.5,13.25,7.8,13.25S6.55,12.7,6.55,12z M12,18.65c-2.6,0-4-1.75-4.1-1.85
	C7.65,16.5,7.7,16,8,15.75c0.3-0.25,0.8-0.2,1.05,0.1c0.05,0.05,1.05,1.25,2.9,1.25s2.9-1.25,2.9-1.25c0.25-0.3,0.75-0.35,1.05-0.1
	s0.35,0.75,0.1,1.05C16,16.9,14.6,18.65,12,18.65z"/>
</svg>
